<svg width="42" height="40" viewBox="0 0 42 40" fill="none" xmlns="http://www.w3.org/2000/svg">
<path fill-rule="evenodd" clip-rule="evenodd" d="M27.1793 39.5211H38.7946C40.1507 39.5211 41.25 38.4218 41.25 37.0658V2.45536C41.25 1.0993 40.1507 0 38.7946 0H27.1652C32.5795 3.43086 36.3403 10.9906 36.3403 19.765C36.3403 28.5318 32.586 36.0861 27.1793 39.5211ZM14.0729 39.5211C8.66614 36.0861 4.91178 28.5318 4.91178 19.765C4.91178 10.9906 8.67264 3.43086 14.0869 0H2.45536C1.0993 0 0 1.0993 0 2.45536V37.0658C0 38.4218 1.0993 39.5211 2.45536 39.5211H14.0729ZM27.9924 19.643C27.9924 27.7794 24.6945 34.3752 20.6263 34.3752C16.5581 34.3752 13.2602 27.7794 13.2602 19.643C13.2602 11.5066 16.5581 4.91079 20.6263 4.91079C24.6945 4.91079 27.9924 11.5066 27.9924 19.643Z" fill="#00BAF2"/>
<ellipse cx="20.6256" cy="19.6424" rx="7.36607" ry="14.7322" fill="#0F4A8A"/>
</svg>
