<svg width="21" height="21" viewBox="0 0 21 21" fill="none" xmlns="http://www.w3.org/2000/svg">
<g clip-path="url(#clip0_998_584)">
<path d="M21 10.5C21 13.2848 19.8938 15.9555 17.9246 17.9246C15.9555 19.8938 13.2848 21 10.5 21C7.71523 21 5.04451 19.8938 3.07538 17.9246C1.10625 15.9555 0 13.2848 0 10.5C0 7.71523 1.10625 5.04451 3.07538 3.07538C5.04451 1.10625 7.71523 0 10.5 0C13.2848 0 15.9555 1.10625 17.9246 3.07538C19.8938 5.04451 21 7.71523 21 10.5V10.5ZM11.1562 5.90625C11.1562 5.7322 11.0871 5.56528 10.964 5.44221C10.841 5.31914 10.674 5.25 10.5 5.25C10.326 5.25 10.159 5.31914 10.036 5.44221C9.91289 5.56528 9.84375 5.7322 9.84375 5.90625V9.84375H5.90625C5.7322 9.84375 5.56528 9.91289 5.44221 10.036C5.31914 10.159 5.25 10.326 5.25 10.5C5.25 10.674 5.31914 10.841 5.44221 10.964C5.56528 11.0871 5.7322 11.1562 5.90625 11.1562H9.84375V15.0938C9.84375 15.2678 9.91289 15.4347 10.036 15.5578C10.159 15.6809 10.326 15.75 10.5 15.75C10.674 15.75 10.841 15.6809 10.964 15.5578C11.0871 15.4347 11.1562 15.2678 11.1562 15.0938V11.1562H15.0938C15.2678 11.1562 15.4347 11.0871 15.5578 10.964C15.6809 10.841 15.75 10.674 15.75 10.5C15.75 10.326 15.6809 10.159 15.5578 10.036C15.4347 9.91289 15.2678 9.84375 15.0938 9.84375H11.1562V5.90625Z" fill="#333434"/>
</g>
<defs>
<clipPath id="clip0_998_584">
<rect width="21" height="21" fill="white"/>
</clipPath>
</defs>
</svg>
