<svg width="20" height="20" viewBox="0 0 20 20" fill="none" xmlns="http://www.w3.org/2000/svg">
<path d="M12.6352 1.061C12.4973 1.13377 12.4514 1.22568 12.4514 1.421C12.4514 1.62015 12.5012 1.71206 12.6429 1.78483C12.7386 1.83462 13.0871 1.84227 15.1399 1.84227H17.5258L13.0029 6.36906C10.5135 8.86224 8.44926 10.9418 8.41479 10.9954C8.38032 11.0452 8.35352 11.1563 8.35352 11.2367C8.35352 11.4473 8.55266 11.6465 8.7633 11.6465C8.84373 11.6465 8.95479 11.6197 9.00458 11.5852C9.05819 11.5507 11.1378 9.48649 13.6309 6.99714L18.1577 2.47419V4.86013C18.1577 7.41459 18.1577 7.40693 18.3454 7.51033C18.4411 7.56012 18.7169 7.56012 18.8126 7.51033C19.0041 7.40693 19.0003 7.46438 19.0003 4.2512V1.26015L18.8701 1.12994L18.7398 0.999726H15.7411C13.1675 1.00356 12.7233 1.01121 12.6352 1.061Z" fill="#333434" stroke="#333434"/>
<path d="M2.41711 2.73469C2.0686 2.85341 1.81966 3.0066 1.57456 3.25937C1.33711 3.50064 1.10733 3.92192 1.04222 4.24745C1.01158 4.38915 1.00009 6.37297 1.00009 10.8346C1.00009 17.7972 0.988606 17.3874 1.21839 17.8738C1.36775 18.1878 1.74307 18.5746 2.0686 18.7469C2.58562 19.0189 2.08392 18.9997 9.16515 18.9997C13.6268 18.9997 15.6106 18.9882 15.7524 18.9576C16.2885 18.8465 16.8592 18.4214 17.1119 17.9465C17.3647 17.4601 17.3532 17.7091 17.3532 13.3508V9.40231L17.246 9.29508C17.1043 9.16487 16.9051 9.1304 16.7481 9.21083C16.4992 9.34104 16.5106 9.11125 16.5106 13.3048C16.5106 17.5329 16.5221 17.3223 16.2502 17.6784C16.1468 17.8163 16.0319 17.9082 15.8443 18.004L15.58 18.138H9.19962C2.99157 18.138 2.8154 18.1342 2.62775 18.0652C2.37881 17.9657 2.06477 17.6708 1.95371 17.418L1.86179 17.2189V10.8193V4.41979L1.99583 4.15553C2.09158 3.96405 2.18349 3.85298 2.32136 3.74958C2.68519 3.47384 2.4286 3.48915 6.67581 3.48915C10.8885 3.48915 10.6588 3.50064 10.789 3.25171C10.8694 3.09469 10.8349 2.89554 10.7047 2.75384L10.5975 2.64661H6.63368L2.66604 2.65044L2.41711 2.73469Z" fill="#333434" stroke="#333434"/>
</svg>
