<svg width="24" height="24" viewBox="0 0 24 24" fill="none" xmlns="http://www.w3.org/2000/svg">
<g clip-path="url(#clip0_998_534)">
<path fill-rule="evenodd" clip-rule="evenodd" d="M2.625 0C1.92881 0 1.26113 0.276562 0.768845 0.768845C0.276562 1.26113 0 1.92881 0 2.625L0 21.375C0 22.824 1.176 24 2.625 24H21.375C22.0712 24 22.7389 23.7234 23.2312 23.2312C23.7234 22.7389 24 22.0712 24 21.375V2.625C24 1.92881 23.7234 1.26113 23.2312 0.768845C22.7389 0.276562 22.0712 0 21.375 0H2.625ZM2.25 2.625C2.25 2.52554 2.28951 2.43016 2.35984 2.35984C2.43016 2.28951 2.52554 2.25 2.625 2.25H21.375C21.4745 2.25 21.5698 2.28951 21.6402 2.35984C21.7105 2.43016 21.75 2.52554 21.75 2.625V21.375C21.75 21.4745 21.7105 21.5698 21.6402 21.6402C21.5698 21.7105 21.4745 21.75 21.375 21.75H2.625C2.52554 21.75 2.43016 21.7105 2.35984 21.6402C2.28951 21.5698 2.25 21.4745 2.25 21.375V2.625ZM17.625 4.5C17.3266 4.5 17.0405 4.61853 16.8295 4.8295C16.6185 5.04048 16.5 5.32663 16.5 5.625V16.875C16.5 17.1734 16.6185 17.4595 16.8295 17.6705C17.0405 17.8815 17.3266 18 17.625 18C17.9234 18 18.2095 17.8815 18.4205 17.6705C18.6315 17.4595 18.75 17.1734 18.75 16.875V5.625C18.75 5.32663 18.6315 5.04048 18.4205 4.8295C18.2095 4.61853 17.9234 4.5 17.625 4.5V4.5ZM5.25 5.625C5.25 5.32663 5.36853 5.04048 5.5795 4.8295C5.79048 4.61853 6.07663 4.5 6.375 4.5C6.67337 4.5 6.95952 4.61853 7.1705 4.8295C7.38147 5.04048 7.5 5.32663 7.5 5.625V13.875C7.5 14.1734 7.38147 14.4595 7.1705 14.6705C6.95952 14.8815 6.67337 15 6.375 15C6.07663 15 5.79048 14.8815 5.5795 14.6705C5.36853 14.4595 5.25 14.1734 5.25 13.875V5.625ZM12 4.5C11.7016 4.5 11.4155 4.61853 11.2045 4.8295C10.9935 5.04048 10.875 5.32663 10.875 5.625V10.875C10.875 11.1734 10.9935 11.4595 11.2045 11.6705C11.4155 11.8815 11.7016 12 12 12C12.2984 12 12.5845 11.8815 12.7955 11.6705C13.0065 11.4595 13.125 11.1734 13.125 10.875V5.625C13.125 5.32663 13.0065 5.04048 12.7955 4.8295C12.5845 4.61853 12.2984 4.5 12 4.5Z" fill="#333434"/>
</g>
<defs>
<clipPath id="clip0_998_534">
<rect width="24" height="24" fill="white"/>
</clipPath>
</defs>
</svg>
